<!-- Generated by IcoMoon.io -->
<svg version="1.1" xmlns="http://www.w3.org/2000/svg" width="56" height="32" viewBox="0 0 56 32">
<title>logo_1</title>
<path fill="#afb1b8" d="M19.934 4.046l3.676 3.48-6.824-0.004v16.885h17.836v-6.456l3.672 3.476v-17.382h-18.361zM34.462 17.543l-10.424-9.868h10.424v9.868zM31.225 21.938h-11.616v-11.356h0.821v10.587h10.795v0.769zM22.352 26.656l-0.429 0.884-0.429-0.884h-0.36l0.626 1.178v0.686h0.325v-0.686l0.625-1.178h-0.359zM22.891 28.52l0.151-0.434h0.722l0.152 0.434h0.338l-0.706-1.865h-0.291l-0.704 1.865h0.337zM23.404 27.051l0.27 0.774h-0.541l0.27-0.774zM25.112 27.78c-0.047 0.072-0.070 0.151-0.070 0.237 0 0.157 0.055 0.285 0.165 0.383s0.259 0.146 0.443 0.146 0.343-0.050 0.476-0.15l0.105 0.124h0.361l-0.274-0.324c0.108-0.147 0.161-0.335 0.161-0.565h-0.27c0 0.126-0.026 0.24-0.078 0.342l-0.36-0.425 0.127-0.092c0.090-0.065 0.154-0.13 0.193-0.195s0.059-0.137 0.059-0.215c0-0.118-0.044-0.216-0.131-0.296s-0.197-0.12-0.333-0.12c-0.15 0-0.27 0.043-0.359 0.128s-0.133 0.2-0.133 0.346c0 0.060 0.014 0.122 0.042 0.186s0.080 0.142 0.152 0.233c-0.138 0.099-0.231 0.185-0.278 0.257zM25.954 28.192c-0.091 0.070-0.19 0.105-0.295 0.105-0.093 0-0.167-0.027-0.223-0.081s-0.083-0.124-0.083-0.21c0-0.1 0.051-0.189 0.154-0.266l0.040-0.028 0.407 0.48zM25.619 27.366c-0.088-0.108-0.132-0.198-0.132-0.27 0-0.062 0.018-0.114 0.054-0.155s0.084-0.061 0.145-0.061c0.056 0 0.103 0.018 0.14 0.052s0.055 0.076 0.055 0.124c0 0.073-0.026 0.134-0.079 0.181l-0.040 0.032-0.142 0.097zM28.655 28.38c0.128-0.112 0.202-0.267 0.22-0.466h-0.323c-0.017 0.133-0.058 0.228-0.122 0.286s-0.16 0.086-0.287 0.086c-0.139 0-0.245-0.053-0.318-0.159s-0.108-0.26-0.108-0.461v-0.165c0.002-0.199 0.040-0.35 0.115-0.452s0.184-0.155 0.325-0.155c0.121 0 0.213 0.030 0.275 0.090s0.102 0.155 0.118 0.289h0.323c-0.020-0.204-0.094-0.362-0.219-0.474s-0.291-0.168-0.497-0.168c-0.153 0-0.288 0.036-0.405 0.109s-0.205 0.176-0.268 0.31c-0.062 0.134-0.093 0.289-0.093 0.465v0.174c0.003 0.172 0.035 0.322 0.096 0.452s0.149 0.23 0.261 0.301c0.114 0.070 0.245 0.105 0.393 0.105 0.213 0 0.383-0.055 0.511-0.166zM30.559 28.118c0.063-0.138 0.095-0.299 0.095-0.482v-0.104c-0.001-0.182-0.033-0.341-0.097-0.478s-0.155-0.243-0.273-0.315c-0.117-0.073-0.251-0.11-0.403-0.11s-0.287 0.037-0.405 0.111c-0.117 0.073-0.208 0.18-0.273 0.319s-0.096 0.3-0.096 0.482v0.105c0.001 0.178 0.033 0.336 0.097 0.473s0.156 0.242 0.274 0.316c0.119 0.073 0.254 0.11 0.405 0.11 0.153 0 0.288-0.037 0.405-0.11s0.208-0.18 0.272-0.318zM30.212 27.064c0.079 0.11 0.118 0.268 0.118 0.475v0.097c0 0.21-0.039 0.37-0.117 0.479s-0.187 0.164-0.33 0.164c-0.142 0-0.253-0.056-0.333-0.168s-0.119-0.27-0.119-0.475v-0.108c0.002-0.201 0.042-0.356 0.12-0.465s0.189-0.165 0.329-0.165c0.143 0 0.254 0.055 0.332 0.165z"></path>
</svg>
